<svg width="120" height="120" xmlns="http://www.w3.org/2000/svg">
<path fill="#1DB954" d="M 110.017 10.199 C 97.467 -2.531 77.72 -3.454 64.068 8.064 C 64.051 8.078 62.291 9.544 60.008 9.544 C 57.667 9.544 55.997 8.107 55.932 8.05 C 42.297 -3.454 22.55 -2.531 9.999 10.199 C 3.553 16.738 0 25.433 0 34.682 C 0 43.931 3.553 52.626 9.876 59.029 L 49.479 106.057 C 52.114 109.188 55.953 110.983 60.008 110.983 C 64.065 110.983 67.902 109.188 70.537 106.06 L 110.015 59.166 C 123.328 45.666 123.328 23.7 110.017 10.199 Z M 106.632 55.99 L 67.029 103.019 C 65.273 105.102 62.713 106.301 60.008 106.301 C 57.303 106.301 54.746 105.105 52.987 103.019 L 13.264 55.854 C 7.689 50.198 4.616 42.679 4.616 34.682 C 4.616 26.682 7.689 19.165 13.262 13.509 C 19.039 7.647 26.581 4.682 34.143 4.682 C 40.78 4.682 47.432 6.969 52.916 11.595 C 53.211 11.863 55.93 14.226 60.008 14.226 C 63.974 14.226 66.761 11.891 67.036 11.651 C 78.828 1.701 95.902 2.502 106.754 13.509 C 118.264 25.184 118.264 44.179 106.632 55.99 Z"></path>

<!-- Text -->
<!-- <path d="M 43.858 150 L 43.858 146.704 L 36.079 146.704 L 36.079 132.296 L 32.682 132.296 L 32.682 150 L 43.858 150 Z M 52.198 150 L 52.198 132.296 L 48.752 132.296 L 48.752 150 L 52.198 150 Z M 69.373 150 L 73.632 150 L 66.665 140.012 L 73.583 132.296 L 69.127 132.296 L 62.135 140.311 L 62.135 132.296 L 58.738 132.296 L 58.738 150 L 62.135 150 L 62.135 145.081 L 64.302 142.659 L 69.373 150 Z M 89.08 150 L 89.08 146.754 L 81.546 146.754 L 81.546 142.659 L 88.366 142.659 L 88.366 139.587 L 81.546 139.587 L 81.546 135.542 L 89.08 135.542 L 89.08 132.296 L 78.149 132.296 L 78.149 150 L 89.08 150 Z"></path> -->

</svg>
