<svg width="120" height="120" xmlns="http://www.w3.org/2000/svg">
<path fill="#1DB954" d="M 110.306 9.845 C 98.112 -2.548 78.777 -3.235 65.773 7.758 C 65.773 7.758 63.353 9.877 60 9.877 C 56.555 9.877 54.226 7.758 54.226 7.758 C 41.225 -3.235 21.889 -2.551 9.693 9.845 C -3.231 22.982 -3.231 44.281 9.693 57.415 L 50.876 106.415 C 55.666 112.116 64.334 112.116 69.124 106.415 L 110.306 57.415 C 123.231 44.278 123.231 22.982 110.306 9.845 Z"></path>

<!-- Text -->
<!-- <path d="M 33.632 150 L 33.632 146.697 L 25.853 146.697 L 25.853 132.262 L 22.456 132.262 L 22.456 150 L 33.632 150 Z M 41.97 150 L 41.97 132.262 L 38.524 132.262 L 38.524 150 L 41.97 150 Z M 59.142 150 L 63.401 150 L 56.435 139.993 L 63.351 132.262 L 58.896 132.262 L 51.905 140.293 L 51.905 132.262 L 48.509 132.262 L 48.509 150 L 51.905 150 L 51.905 145.071 L 54.072 142.644 L 59.142 150 Z M 78.846 150 L 78.846 146.747 L 71.314 146.747 L 71.314 142.644 L 78.132 142.644 L 78.132 139.567 L 71.314 139.567 L 71.314 135.514 L 78.846 135.514 L 78.846 132.262 L 67.917 132.262 L 67.917 150 L 78.846 150 Z M 88.03 146.797 L 88.03 135.464 L 90.762 135.464 C 93.618 135.464 95.981 137.291 95.981 141.143 C 95.981 144.996 93.593 146.797 90.738 146.797 L 88.03 146.797 Z M 90.861 150 C 95.833 150 99.5 146.747 99.5 141.143 C 99.5 135.539 95.857 132.262 90.885 132.262 L 84.633 132.262 L 84.633 150 L 90.861 150 Z"></path> -->

</svg>
